HIERARCHY
ROOT Hips
{
	OFFSET 0.000000 0.000000 0.000000
	CHANNELS 6 Xposition Yposition Zposition Xrotation Yrotation Zrotation
	JOINT LeftUpLeg_virtual
	{
		OFFSET 0.000000 0.000000 0.000000
		CHANNELS 3 Xrotation Yrotation Zrotation
		JOINT LeftUpLeg
		{
			OFFSET 10.205400 -3.823500 0.155100
			CHANNELS 3 Xrotation Yrotation Zrotation
			JOINT LeftLeg
			{
				OFFSET 0.708757 -12.982077 0.567790
				CHANNELS 3 Xrotation Yrotation Zrotation
				JOINT LeftFoot
				{
					OFFSET -0.708756 -10.717838 -2.184338
					CHANNELS 3 Xrotation Yrotation Zrotation
					JOINT LeftToeBase
					{
						OFFSET 0.108149 -7.191104 7.560241
						CHANNELS 3 Xrotation Yrotation Zrotation
						JOINT LeftToe_End
						{
							OFFSET 0.070230 0.081724 4.490308
							CHANNELS 3 Xrotation Yrotation Zrotation
							End Site
							{
								OFFSET 0 0 0
							}
						}
					}
				}
			}
		}
	}
	JOINT RightUpLeg_virtual
	{
		OFFSET 0.000000 0.000000 0.000000
		CHANNELS 3 Xrotation Yrotation Zrotation
		JOINT RightUpLeg
		{
			OFFSET -10.205400 -3.823500 0.005500
			CHANNELS 3 Xrotation Yrotation Zrotation
			JOINT RightLeg
			{
				OFFSET -0.708756 -12.982134 0.610632
				CHANNELS 3 Xrotation Yrotation Zrotation
				JOINT RightFoot
				{
					OFFSET 0.708754 -10.717769 -1.945823
					CHANNELS 3 Xrotation Yrotation Zrotation
					JOINT RightToeBase
					{
						OFFSET -0.108140 -7.191069 7.372968
						CHANNELS 3 Xrotation Yrotation Zrotation
						JOINT RightToe_End
						{
							OFFSET -0.070227 0.081735 4.479403
							CHANNELS 3 Xrotation Yrotation Zrotation
							End Site
							{
								OFFSET 0 0 0
							}
						}
					}
				}
			}
		}
	}
	JOINT Spine_virtual
	{
		OFFSET 0.000000 0.000000 0.000000
		CHANNELS 3 Xrotation Yrotation Zrotation
		JOINT Spine
		{
			OFFSET 0.000000 6.876099 0.125700
			CHANNELS 3 Xrotation Yrotation Zrotation
			JOINT Spine1
			{
				OFFSET 0.000000 5.730043 0.104720
				CHANNELS 3 Xrotation Yrotation Zrotation
				JOINT Spine1_split
				{
					OFFSET 0.000000 5.730043 0.104720
					CHANNELS 3 Xrotation Yrotation Zrotation
					JOINT Spine2
					{
						OFFSET 0.000000 5.730043 0.104720
						CHANNELS 3 Xrotation Yrotation Zrotation
						JOINT Neck_virtual
						{
							OFFSET 0.000000 0.000000 0.000000
							CHANNELS 3 Xrotation Yrotation Zrotation
							JOINT Neck
							{
								OFFSET 0.000000 10.314075 0.188496
								CHANNELS 3 Xrotation Yrotation Zrotation
								JOINT Head
								{
									OFFSET 0.000000 7.643700 -2.377400
									CHANNELS 3 Xrotation Yrotation Zrotation
									JOINT HeadTop_End
									{
										OFFSET 0.000000 43.788605 -13.619600
										CHANNELS 3 Xrotation Yrotation Zrotation
										End Site
										{
											OFFSET 0 0 0
										}
									}
								}
							}
						}
						JOINT LeftShoulder_virtual
						{
							OFFSET 0.000000 0.000000 0.000000
							CHANNELS 3 Xrotation Yrotation Zrotation
							JOINT LeftShoulder
							{
								OFFSET 2.196100 4.412489 0.087492
								CHANNELS 3 Xrotation Yrotation Zrotation
								JOINT LeftShoulder_split
								{
									OFFSET 2.196100 4.412489 0.087492
									CHANNELS 3 Xrotation Yrotation Zrotation
									JOINT LeftArm
									{
										OFFSET 8.771219 -2.981674 -0.026999
										CHANNELS 3 Xrotation Yrotation Zrotation
										JOINT LeftForeArm
										{
											OFFSET 8.512804 0.000000 -0.000000
											CHANNELS 3 Xrotation Yrotation Zrotation
											JOINT LeftHand
											{
												OFFSET 18.484802 0.000000 -0.000000
												CHANNELS 3 Xrotation Yrotation Zrotation
												End Site
												{
													OFFSET 0 0 0
												}
											}
										}
									}
								}
							}
						}
						JOINT RightShoulder_virtual
						{
							OFFSET 0.000000 0.000000 0.000000
							CHANNELS 3 Xrotation Yrotation Zrotation
							JOINT RightShoulder
							{
								OFFSET -2.196100 4.412496 0.070690
								CHANNELS 3 Xrotation Yrotation Zrotation
								JOINT RightShoulder_split
								{
									OFFSET -2.196100 4.412496 0.070690
									CHANNELS 3 Xrotation Yrotation Zrotation
									JOINT RightArm
									{
										OFFSET -8.771282 -2.981682 -0.094208
										CHANNELS 3 Xrotation Yrotation Zrotation
										JOINT RightForeArm
										{
											OFFSET -8.494598 0.000000 0.000000
											CHANNELS 3 Xrotation Yrotation Zrotation
											JOINT RightHand
											{
												OFFSET -18.483803 0.000000 0.000001
												CHANNELS 3 Xrotation Yrotation Zrotation
												End Site
												{
													OFFSET 0 0 0
												}
											}
										}
									}
								}
							}
						}
					}
				}
			}
		}
	}
}
MOTION
Frames: 9
Frame Time: 0.03333333
0.024083 26.150404 0.475210 0.000000 0.000000 0.000000 12.196177 -52.330959 11.376284 -70.589500 16.518439 48.420973 49.477306 -19.411111 4.224666 8.127833 -5.332608 -18.673621 -10.152771 -6.822373 1.271388 0.000000 0.000000 0.000000 11.643248 -51.728376 11.181390 -20.383448 2.578744 -37.603169 48.819020 17.424048 -8.269144 -35.835718 -12.974773 32.901421 3.452618 4.969172 3.835141 0.000000 0.000000 0.000000 11.984994 -47.112736 10.489816 6.906599 3.843977 -4.126112 6.623556 7.282441 -4.699836 0.206844 -2.270981 0.638647 0.000000 0.000000 0.000000 -2.963014 7.287647 -3.377971 0.093042 13.917208 -1.362418 -2.659767 16.746324 -1.854723 0.000000 0.000000 0.000000 -4.175409 6.601156 -2.781827 -0.117206 -14.766946 0.923275 -1.125551 -1.947827 -0.207759 -21.083783 1.208894 -48.571432 -19.853548 -13.622423 -9.574219 0.000000 0.000000 0.000000 -5.170306 6.552247 -2.555942 -0.996171 18.754093 -1.153943 -3.547699 -4.188747 6.859277 -0.951232 -22.274253 54.765048 -23.611196 44.181280 24.345216 0.000000 0.000000 0.000000 
0.156541 26.298409 0.452784 0.000000 0.000000 0.000000 11.959945 -52.153692 11.328140 -69.303621 15.987412 47.999605 48.584293 -20.258855 3.435413 6.098539 -4.347775 -18.935465 -8.043501 -6.603477 0.456217 0.000000 0.000000 0.000000 11.408309 -52.361272 11.355229 -21.317900 2.382276 -37.411412 49.027634 16.779871 -8.028034 -35.833163 -12.928713 31.011490 4.884615 5.147121 4.094006 0.000000 0.000000 0.000000 12.035108 -47.268099 10.437577 6.717618 3.837487 -4.333264 6.577250 7.206314 -4.837572 0.070883 -2.320232 0.702599 0.000000 0.000000 0.000000 -3.145774 7.273627 -3.434766 0.127998 14.556853 -2.112446 -2.417229 17.366109 -2.407357 0.000000 0.000000 0.000000 -4.335519 6.588122 -2.848884 -0.271014 -14.372694 0.497264 -1.557876 -1.838186 0.074209 -20.279209 1.730123 -47.748056 -19.874085 -13.746009 -9.850330 0.000000 0.000000 0.000000 -5.166228 6.506268 -2.687504 -0.889651 18.698363 -0.748311 -5.235139 -3.563128 6.488174 -1.495698 -23.625380 54.454998 -23.674955 44.283989 24.777975 0.000000 0.000000 0.000000 
0.393091 26.544991 0.400370 0.000000 0.000000 0.000000 11.646535 -53.530542 11.546398 -67.265417 14.918972 48.437499 48.262861 -21.486669 2.577420 5.074035 -2.863339 -22.169629 -3.447347 -6.211725 -0.828031 0.000000 0.000000 0.000000 11.012966 -54.569185 11.723583 -24.516254 2.811960 -36.666651 48.896778 16.723331 -7.738426 -33.337399 -12.131668 30.078586 4.923083 5.303248 3.625885 0.000000 0.000000 0.000000 12.177260 -49.132119 10.807262 7.157978 3.694664 -4.412560 6.734229 7.110081 -5.081034 -0.021524 -2.542854 0.950261 0.000000 0.000000 0.000000 -3.133458 7.186016 -3.617947 -0.099500 15.389815 -3.154972 -2.181686 18.149256 -3.782507 0.000000 0.000000 0.000000 -4.326811 6.597666 -3.073913 -0.512140 -13.398226 -0.902960 -2.047701 -2.167542 0.398059 -19.716543 2.727030 -46.693943 -18.642972 -14.312368 -9.570912 0.000000 0.000000 0.000000 -4.963226 6.495104 -2.949192 -0.803122 18.176105 -0.014360 -6.458257 -3.628360 5.831177 -2.874070 -23.341941 52.775410 -24.421514 45.472804 26.251113 0.000000 0.000000 0.000000 
0.614014 26.775038 0.334049 0.000000 0.000000 0.000000 11.435279 -56.584463 12.080568 -64.107595 14.410142 49.632277 47.463852 -22.412183 1.580878 4.536788 -0.626558 -26.396103 -0.804398 -5.946247 -1.129263 0.000000 0.000000 0.000000 10.850042 -58.318320 12.459157 -29.693353 3.754805 -35.089964 48.802576 17.214008 -7.488223 -28.757470 -10.547885 29.857810 3.765231 5.368592 2.776285 0.000000 0.000000 0.000000 12.395619 -52.724129 11.621861 8.021594 3.376796 -4.347388 7.030943 6.923810 -5.387474 -0.087126 -2.724135 1.548267 0.000000 0.000000 0.000000 -2.905215 7.009597 -3.904159 -0.471579 16.458951 -4.457162 -2.030409 19.010904 -5.744627 0.000000 0.000000 0.000000 -4.179171 6.558049 -3.444948 -0.738093 -11.923613 -2.977016 -2.348299 -2.766896 0.517487 -19.454807 3.922065 -45.689492 -16.213991 -14.595793 -8.678845 0.000000 0.000000 0.000000 -4.687931 6.412869 -3.317486 -0.706386 17.094553 0.841150 -6.915674 -3.901191 5.110953 -4.470452 -21.013794 49.881578 -25.744590 47.809880 28.671259 0.000000 0.000000 0.000000 
0.759537 26.904259 0.176723 0.000000 0.000000 0.000000 12.151917 -61.233534 13.406524 -59.396179 15.810454 51.522770 45.494080 -21.814863 0.258494 1.800865 3.454007 -28.402295 -1.705307 -5.835306 -0.207218 0.000000 0.000000 0.000000 11.363677 -63.261212 13.732217 -36.289673 4.864280 -32.486989 48.404526 18.107979 -7.280814 -23.076854 -8.316518 29.659359 2.600783 5.336427 1.912102 0.000000 0.000000 0.000000 13.105939 -57.727304 13.099561 9.137908 2.848884 -4.087645 7.430278 6.570894 -5.720945 -0.230702 -3.044071 2.058405 0.000000 0.000000 0.000000 -2.558933 6.693739 -4.225084 -0.844918 17.713763 -5.858529 -2.035324 19.728600 -7.984629 0.000000 0.000000 0.000000 -3.938467 6.363564 -3.919443 -0.867666 -10.098027 -5.176436 -2.554877 -3.324323 0.276791 -19.247487 5.133105 -44.856079 -12.998087 -14.305882 -7.383804 0.000000 0.000000 0.000000 -4.413828 6.148403 -3.746486 -0.580633 15.449703 1.563670 -6.435212 -4.084260 4.383708 -5.635327 -16.766398 46.223841 -27.515740 51.091837 31.855101 0.000000 0.000000 0.000000 
0.815655 26.906710 -0.022320 0.000000 0.000000 0.000000 14.626030 -67.172308 16.195757 -53.706314 19.241860 53.806092 43.158917 -19.561406 -0.994300 -3.555756 9.031570 -27.728577 -3.956463 -5.688118 0.692141 0.000000 0.000000 0.000000 13.346066 -69.144218 16.193682 -43.610013 5.851119 -28.930506 47.611975 19.258096 -7.100493 -17.281796 -5.706639 29.074111 2.149942 5.216784 1.306317 0.000000 0.000000 0.000000 15.029042 -63.772097 15.718589 10.340944 2.070158 -3.664581 7.863528 5.976839 -6.033091 -0.447224 -3.552418 2.162159 0.000000 0.000000 0.000000 -2.210423 6.147940 -4.505805 -1.161828 19.069495 -7.136904 -2.302416 20.175960 -10.163477 0.000000 0.000000 0.000000 -3.629008 5.891719 -4.426226 -0.862684 -8.033908 -6.936738 -2.491685 -3.371517 -0.133820 -18.793730 6.358983 -44.295034 -9.487974 -13.615551 -6.012165 0.000000 0.000000 0.000000 -4.127259 5.590527 -4.190649 -0.410716 13.295848 1.811534 -5.247178 -4.124332 3.736651 -6.122935 -11.110676 42.101276 -29.709151 54.887004 35.660612 0.000000 0.000000 0.000000 
0.776920 26.826416 -0.299982 0.000000 0.000000 0.000000 20.789527 -73.651897 22.437021 -48.459198 23.892881 56.358268 41.611561 -16.679360 -1.748084 -9.564333 14.364682 -26.690776 -4.927242 -5.268939 0.577241 0.000000 0.000000 0.000000 18.690446 -75.327807 21.709842 -50.634692 6.465370 -24.813049 46.249332 20.638936 -6.935800 -12.137642 -2.815418 28.080880 2.598641 5.130751 0.949873 0.000000 0.000000 0.000000 19.705608 -70.098525 20.766285 11.537309 1.089348 -3.147260 8.327750 5.107293 -6.253316 -0.647390 -3.910287 1.862299 0.000000 0.000000 0.000000 -1.902870 5.347441 -4.693941 -1.224272 20.378312 -8.135069 -2.952513 20.428356 -12.082826 0.000000 0.000000 0.000000 -3.169571 5.080297 -4.854205 -0.719813 -5.788015 -7.955214 -2.304507 -2.926663 -0.753844 -17.540076 7.654071 -44.005153 -6.102249 -13.089480 -4.881338 0.000000 0.000000 0.000000 -3.825053 4.706040 -4.573086 -0.239528 10.628834 1.504724 -3.760974 -4.164000 3.088888 -6.221038 -4.998974 37.600140 -33.088288 58.995971 40.598378 0.000000 0.000000 0.000000 
0.657078 26.702499 -0.627039 0.000000 0.000000 0.000000 35.936876 -79.394679 37.478621 -44.206535 28.826127 58.844586 40.966467 -14.133144 -1.868908 -14.347792 18.095172 -27.543231 -5.757500 -4.617776 0.309964 0.000000 0.000000 0.000000 33.389315 -80.780197 36.257957 -56.669216 6.751934 -20.417584 44.176120 22.122547 -6.731042 -7.941406 0.116309 27.181069 3.273928 5.115717 0.648751 0.000000 0.000000 0.000000 30.509598 -75.622611 31.564941 12.645066 -0.091108 -2.672102 8.847832 3.975564 -6.369738 -0.733732 -3.887902 1.407406 0.000000 0.000000 0.000000 -1.609188 4.250310 -4.778216 -0.814261 21.382558 -8.652173 -3.897589 20.668513 -13.701053 0.000000 0.000000 0.000000 -2.489820 3.971862 -5.131539 -0.499624 -3.556523 -8.094278 -1.964878 -2.499142 -1.173674 -15.186388 8.956412 -43.923615 -3.116458 -14.006239 -4.245415 0.000000 0.000000 0.000000 -3.377547 3.545284 -4.845502 -0.112121 7.758242 0.640216 -2.348587 -4.258216 2.704623 -6.265505 0.365908 32.782664 -39.245966 63.254464 48.062767 0.000000 0.000000 0.000000 
0.468079 26.571278 -0.911026 0.000000 0.000000 0.000000 67.974890 -82.351222 69.268705 -41.204448 33.705105 60.895344 40.800490 -12.030044 -1.564671 -18.082554 19.997448 -29.945059 -7.804201 -3.852357 0.670667 0.000000 0.000000 0.000000 73.234279 -83.756185 75.757856 -61.556124 6.862680 -16.139477 41.719444 23.602298 -6.485669 -4.631221 2.974565 27.079040 2.917605 5.139978 0.169400 0.000000 0.000000 0.000000 52.220823 -79.165929 53.043307 13.544837 -1.459337 -2.393783 9.453381 2.647249 -6.401480 -0.510246 -3.611642 1.174342 0.000000 0.000000 0.000000 -1.179641 2.907622 -4.814377 0.382096 22.018626 -8.569417 -4.976612 21.313728 -15.022600 0.000000 0.000000 0.000000 -1.589288 2.638797 -5.280075 -0.291437 -1.638268 -7.485934 -1.523805 -2.363433 -1.187662 -12.236027 10.202598 -43.885915 -0.530125 -17.032875 -4.146090 0.000000 0.000000 0.000000 -2.696897 2.167850 -5.020890 -0.061111 4.942715 -0.538593 -1.086320 -4.567275 2.510894 -6.408419 4.116031 27.666188 -50.405065 67.019346 60.200119 0.000000 0.000000 0.000000 
